<?xml version="1.0" encoding="UTF-8"?>
<!DOCTYPE svg PUBLIC "-//W3C//DTD SVG 1.1//EN" "http://www.w3.org/Graphics/SVG/1.1/DTD/svg11.dtd">
<svg version="1.1" id="Layer_1" xmlns="http://www.w3.org/2000/svg" xmlns:xlink="http://www.w3.org/1999/xlink" x="0px" y="0px" width="32px" height="32px" viewBox="0 0 32 32" enable-background="new 0 0 32 32" xml:space="preserve">
  <g id="main">
    <g id="icon">
      <path d="M4.198,2.031L3.917,2.121L3.662,2.263L3.44,2.45L3.256,2.676L3.118,2.934L3.03,3.218L3,3.521L3,27.5L3.032,27.8L3.124,28.08L3.268,28.34L3.459,28.56L3.688,28.74L3.948,28.88L4.234,28.97L4.537,29L17.96,29L17.54,28.16L17.19,27.16L16.97,26.1L16.97,26L6,26L6,4L8.13,4L8.124,3.752L8.186,3.457L8.356,3.196L8.618,2.962L8.951,2.75L9.758,2.367L10.62,2L4.5,2zM20.44,2.364L21.16,2.733L21.46,2.934L21.69,3.151L21.83,3.391L21.89,3.659L21.88,4L24,4L24,16.97L24.17,16.94L25,16.9L26.1,16.97L27,17.16L27,3.521L26.97,3.218L26.88,2.934L26.74,2.676L26.56,2.45L26.34,2.263L26.08,2.121L25.8,2.031L25.5,2L19.62,2zz" fill-rule="evenodd" fill="#EAB765"/>
      <path d="M6,26L16.97,26L16.9,25L16.94,24.17L17.06,23.37L17.26,22.59L17.54,21.85L17.88,21.14L18.28,20.47L18.75,19.85L19.27,19.27L19.85,18.75L20.47,18.28L21.14,17.88L21.85,17.54L22.59,17.26L23.37,17.06L24,16.97L24,4.018L6,4.018zz" fill-rule="evenodd" fill="#FFFFFF"/>
      <g>
        <g>
          <path d="M12.74,0.1201L12.52,0.5555L12.44,0.9172L12.44,1.472L12.4,1.662L12.29,1.835L11.88,2.14L11.31,2.408L10.64,2.66L9.985,2.916L9.409,3.2L9.001,3.531L8.887,3.721L8.847,3.931L8.91,4.615L8.982,4.861L9.075,4.975L14.96,4.982L20.84,4.975L20.93,4.862L21,4.615L21.07,3.931L21.03,3.721L20.91,3.531L20.5,3.2L19.93,2.916L19.27,2.66L18.61,2.408L18.03,2.14L17.63,1.835L17.51,1.662L17.47,1.472L17.47,0.9172L17.39,0.5555L17.17,0.1201L17.07,0L12.84,0zM15.26,0.6502L15.5,0.8281L15.67,1.09L15.73,1.405L15.67,1.719L15.5,1.975L15.26,2.148L14.96,2.211L14.66,2.148L14.41,1.975L14.25,1.719L14.19,1.405L14.25,1.089L14.41,0.8281L14.66,0.6502L14.96,0.5844zz" fill-rule="evenodd" fill="#797979"/>
        </g>
      </g>
      <path d="M20.25,10.84L20.12,10.92L13.38,17.62L9.866,14.07L9.752,13.99L9.616,13.97L9.48,14.01L9.366,14.11L8.16,15.31L8.073,15.43L8.039,15.57L8.059,15.71L8.139,15.83L11.5,19.21L11.56,19.27L13.17,20.88L13.29,20.97L13.43,21L13.57,20.98L13.69,20.9L21.93,12.72L22.01,12.6L22.03,12.45L22,12.31L21.92,12.19L20.66,10.92L20.53,10.84L20.39,10.81zz" fill="#CD4C32"/>
    </g>
    <g id="overlay">
      <path d="M25.0347,18.8353c3.4017,0,6.1593,2.7576,6.1593,6.1593c0,3.4017,-2.7576,6.1593,-6.1593,6.1593c-3.4017,0,-6.1593,-2.7576,-6.1593,-6.1593C18.8755,21.5929,21.6331,18.8353,25.0347,18.8353z" fill-rule="evenodd" fill="#FFFFFF"/>
      <path d="M25.0072,18.0144c-3.862,0,-6.9928,3.1308,-6.9928,6.9928c0,3.862,3.1308,6.9928,6.9928,6.9928S32,28.8692,32,25.0072C32,21.1452,28.8692,18.0144,25.0072,18.0144zM25.0072,30.9317c-3.272,0,-5.9245,-2.6525,-5.9245,-5.9245c0,-3.272,2.6525,-5.9245,5.9245,-5.9245s5.9245,2.6525,5.9245,5.9245C30.9317,28.2792,28.2792,30.9317,25.0072,30.9317z" fill-rule="evenodd" fill="#797979"/>
      <path d="M23.8619,25.0174c-0.0024,0.7312,0.0646,1.0655,0.666,1.0684c0.6014,0.0029,0.6104,-0.4072,0.6128,-1.1383c0.0024,-0.7312,-0.2011,-5.3477,-0.5908,-5.3497C24.1603,19.596,23.8643,24.2862,23.8619,25.0174z" fill-rule="evenodd" fill="#3E79B4"/>
      <path d="M25.3505,25.6061c-0.5171,-0.5216,-0.7824,-0.6867,-1.2092,-0.2631c-0.4268,0.4236,-0.3121,0.5789,0.205,1.1005c0.5171,0.5216,3.5598,3.1085,3.8363,2.834C28.4591,29.003,25.8676,26.1277,25.3505,25.6061z" fill-rule="evenodd" fill="#3E79B4"/>
    </g>
  </g>
</svg>
